<svg width="100" height="60" viewBox="0 0 100 60" fill="none" xmlns="http://www.w3.org/2000/svg">
<path d="M74.0476 51.594V47.618H74.6948V51.594H74.0476ZM74.3749 46.8741C74.2559 46.8741 74.153 46.8307 74.0662 46.7439C73.9794 46.6571 73.936 46.5542 73.936 46.4352C73.936 46.3137 73.9794 46.2108 74.0662 46.1265C74.153 46.0422 74.2559 46 74.3749 46C74.4964 46 74.5993 46.0422 74.6836 46.1265C74.768 46.2108 74.8101 46.3137 74.8101 46.4352C74.8101 46.5542 74.768 46.6571 74.6836 46.7439C74.5993 46.8307 74.4964 46.8741 74.3749 46.8741Z" fill="#EBEBF5" fill-opacity="0.6"/>
<path d="M72.4114 51.594V47.618H73.0586V51.594H72.4114ZM72.7387 46.8741C72.6197 46.8741 72.5168 46.8307 72.43 46.7439C72.3432 46.6571 72.2998 46.5542 72.2998 46.4352C72.2998 46.3137 72.3432 46.2108 72.43 46.1265C72.5168 46.0422 72.6197 46 72.7387 46C72.8602 46 72.9631 46.0422 73.0474 46.1265C73.1317 46.2108 73.1739 46.3137 73.1739 46.4352C73.1739 46.5542 73.1317 46.6571 73.0474 46.7439C72.9631 46.8307 72.8602 46.8741 72.7387 46.8741Z" fill="#EBEBF5" fill-opacity="0.6"/>
<path d="M69.6705 53C69.3507 53 69.0705 52.9541 68.8299 52.8624C68.5919 52.7731 68.401 52.6467 68.2571 52.483C68.1133 52.3218 68.0228 52.1346 67.9856 51.9214L67.9931 51.9102H68.6551L68.6626 51.9214C68.7047 52.0701 68.8126 52.1917 68.9862 52.2859C69.1597 52.3801 69.3879 52.4272 69.6705 52.4272C70.0251 52.4272 70.3016 52.3441 70.5 52.178C70.6983 52.0119 70.7975 51.7813 70.7975 51.4862V50.7497H70.7492C70.6673 50.896 70.5632 51.0213 70.4367 51.1254C70.3128 51.2296 70.1714 51.3089 70.0127 51.3635C69.854 51.418 69.6829 51.4453 69.4994 51.4453C69.1572 51.4453 68.8609 51.3635 68.6105 51.1998C68.36 51.0337 68.1666 50.8043 68.0303 50.5117C67.8939 50.2191 67.8257 49.8819 67.8257 49.5V49.4963C67.8257 49.1144 67.8951 48.7772 68.034 48.4846C68.1728 48.192 68.3675 47.9626 68.6179 47.7965C68.8708 47.6304 69.1696 47.5473 69.5143 47.5473C69.7003 47.5473 69.8714 47.5771 70.0276 47.6366C70.1863 47.6961 70.3264 47.7804 70.4479 47.8895C70.5719 47.9986 70.6735 48.1288 70.7529 48.28H70.7938V47.618H71.441V51.5271C71.441 51.8247 71.3691 52.0838 71.2253 52.3045C71.0814 52.5252 70.8769 52.6963 70.6115 52.8178C70.3462 52.9393 70.0326 53 69.6705 53ZM69.6408 50.8725C69.8813 50.8725 70.0883 50.8142 70.2619 50.6977C70.438 50.5811 70.5731 50.42 70.6673 50.2141C70.7616 50.0083 70.8087 49.7703 70.8087 49.5V49.4963C70.8087 49.226 70.7616 48.988 70.6673 48.7822C70.5731 48.5739 70.438 48.4115 70.2619 48.2949C70.0883 48.1784 69.8813 48.1201 69.6408 48.1201C69.3953 48.1201 69.187 48.1784 69.0159 48.2949C68.8448 48.4115 68.7134 48.5726 68.6216 48.7784C68.5324 48.9842 68.4877 49.2235 68.4877 49.4963V49.5C68.4877 49.7728 68.5324 50.0121 68.6216 50.2179C68.7134 50.4237 68.8448 50.5849 69.0159 50.7014C69.187 50.8155 69.3953 50.8725 69.6408 50.8725Z" fill="#EBEBF5" fill-opacity="0.6"/>
<path d="M65.5459 51.5941V47.618H66.1931V48.228H66.2452C66.3171 48.0147 66.4423 47.8486 66.6208 47.7296C66.7994 47.6081 67.0176 47.5473 67.2754 47.5473C67.335 47.5473 67.3932 47.551 67.4503 47.5585C67.5073 47.5634 67.5519 47.5684 67.5842 47.5733V48.2019C67.5271 48.1895 67.4664 48.1808 67.4019 48.1759C67.3399 48.1684 67.2717 48.1647 67.1973 48.1647C67.0014 48.1647 66.8279 48.2044 66.6766 48.2838C66.5254 48.3631 66.4063 48.4759 66.3195 48.6222C66.2352 48.766 66.1931 48.9359 66.1931 49.1318V51.5941H65.5459Z" fill="#EBEBF5" fill-opacity="0.6"/>
<path d="M62.9612 51.6647C62.5868 51.6647 62.2619 51.5817 61.9867 51.4155C61.7115 51.2494 61.4982 51.0126 61.3469 50.7051C61.1982 50.3976 61.1238 50.0319 61.1238 49.6079V49.6004C61.1238 49.1764 61.1982 48.8107 61.3469 48.5032C61.4982 48.1957 61.7115 47.9602 61.9867 47.7965C62.2619 47.6304 62.5855 47.5473 62.9575 47.5473C63.3344 47.5473 63.6592 47.6304 63.932 47.7965C64.2072 47.9602 64.4192 48.1957 64.568 48.5032C64.7192 48.8107 64.7949 49.1764 64.7949 49.6004V49.6079C64.7949 50.0319 64.7192 50.3976 64.568 50.7051C64.4192 51.0126 64.2072 51.2494 63.932 51.4155C63.6592 51.5817 63.3356 51.6647 62.9612 51.6647ZM62.9612 51.0919C63.2067 51.0919 63.4162 51.0337 63.5898 50.9171C63.7658 50.7981 63.8997 50.6282 63.9915 50.4076C64.0857 50.1869 64.1328 49.9203 64.1328 49.6079V49.6004C64.1328 49.288 64.0857 49.0214 63.9915 48.8008C63.8997 48.5801 63.7658 48.4115 63.5898 48.2949C63.4162 48.1784 63.2054 48.1201 62.9575 48.1201C62.712 48.1201 62.5012 48.1784 62.3252 48.2949C62.1516 48.4115 62.0177 48.5801 61.9235 48.8008C61.8317 49.0214 61.7858 49.288 61.7858 49.6004V49.6079C61.7858 49.9203 61.8317 50.1869 61.9235 50.4076C62.0177 50.6282 62.1516 50.7981 62.3252 50.9171C62.5012 51.0337 62.7132 51.0919 62.9612 51.0919Z" fill="#EBEBF5" fill-opacity="0.6"/>
<path d="M58.8739 51.6647C58.4945 51.6647 58.1684 51.5817 57.8956 51.4155C57.6229 51.2469 57.4134 51.0101 57.2671 50.7051C57.1208 50.3976 57.0476 50.0356 57.0476 49.619V49.6153C57.0476 49.2062 57.1208 48.8466 57.2671 48.5367C57.4134 48.2267 57.6204 47.985 57.8882 47.8114C58.1585 47.6353 58.4734 47.5473 58.8329 47.5473C59.1925 47.5473 59.5024 47.6316 59.7628 47.8002C60.0232 47.9664 60.2228 48.1994 60.3616 48.4995C60.5005 48.797 60.5699 49.1442 60.5699 49.5409V49.7901H57.3786V49.2731H60.2426L59.9227 49.7455V49.4926C59.9227 49.1801 59.8756 48.9235 59.7814 48.7226C59.6872 48.5218 59.5582 48.3718 59.3946 48.2726C59.2309 48.1734 59.0425 48.1238 58.8292 48.1238C58.616 48.1238 58.425 48.1759 58.2564 48.28C58.0878 48.3842 57.9539 48.5379 57.8547 48.7412C57.758 48.9446 57.7097 49.195 57.7097 49.4926V49.7455C57.7097 50.0282 57.7568 50.2699 57.851 50.4708C57.9477 50.6692 58.0841 50.8217 58.2601 50.9283C58.4387 51.0349 58.6482 51.0882 58.8887 51.0882C59.0648 51.0882 59.2185 51.0634 59.3499 51.0138C59.4838 50.9642 59.5942 50.901 59.681 50.8241C59.7678 50.7448 59.8285 50.6617 59.8632 50.5749L59.8781 50.5415H60.5216L60.5141 50.5712C60.4819 50.7126 60.4211 50.8489 60.3319 50.9804C60.2426 51.1093 60.1285 51.2258 59.9897 51.33C59.8508 51.4341 59.6872 51.516 59.4987 51.5755C59.3103 51.635 59.102 51.6647 58.8739 51.6647Z" fill="#EBEBF5" fill-opacity="0.6"/>
<path d="M54.526 53C54.2061 53 53.9259 52.9541 53.6854 52.8624C53.4474 52.7731 53.2564 52.6467 53.1126 52.483C52.9688 52.3218 52.8783 52.1346 52.8411 51.9214L52.8485 51.9102H53.5106L53.518 51.9214C53.5602 52.0701 53.668 52.1917 53.8416 52.2859C54.0152 52.3801 54.2433 52.4272 54.526 52.4272C54.8806 52.4272 55.1571 52.3441 55.3554 52.178C55.5538 52.0119 55.653 51.7813 55.653 51.4862V50.7497H55.6046C55.5228 50.896 55.4187 51.0213 55.2922 51.1254C55.1682 51.2296 55.0269 51.3089 54.8682 51.3635C54.7095 51.418 54.5384 51.4453 54.3549 51.4453C54.0127 51.4453 53.7164 51.3635 53.466 51.1998C53.2155 51.0337 53.0221 50.8043 52.8857 50.5117C52.7493 50.2191 52.6812 49.8819 52.6812 49.5V49.4963C52.6812 49.1144 52.7506 48.7772 52.8894 48.4846C53.0283 48.192 53.223 47.9626 53.4734 47.7965C53.7263 47.6304 54.0251 47.5473 54.3698 47.5473C54.5558 47.5473 54.7268 47.5771 54.8831 47.6366C55.0418 47.6961 55.1819 47.7804 55.3034 47.8895C55.4273 47.9986 55.529 48.1288 55.6084 48.28H55.6493V47.618H56.2965V51.5271C56.2965 51.8247 56.2245 52.0838 56.0807 52.3045C55.9369 52.5252 55.7323 52.6963 55.467 52.8178C55.2017 52.9393 54.888 53 54.526 53ZM54.4962 50.8725C54.7368 50.8725 54.9438 50.8142 55.1174 50.6977C55.2934 50.5811 55.4286 50.42 55.5228 50.2141C55.617 50.0083 55.6641 49.7703 55.6641 49.5V49.4963C55.6641 49.226 55.617 48.988 55.5228 48.7822C55.4286 48.5739 55.2934 48.4115 55.1174 48.2949C54.9438 48.1784 54.7368 48.1201 54.4962 48.1201C54.2508 48.1201 54.0425 48.1784 53.8714 48.2949C53.7003 48.4115 53.5689 48.5726 53.4771 48.7784C53.3878 48.9842 53.3432 49.2235 53.3432 49.4963V49.5C53.3432 49.7728 53.3878 50.0121 53.4771 50.2179C53.5689 50.4237 53.7003 50.5849 53.8714 50.7014C54.0425 50.8155 54.2508 50.8725 54.4962 50.8725Z" fill="#EBEBF5" fill-opacity="0.6"/>
<path d="M49.4939 49.7305V49.128H51.9673V49.7305H49.4939Z" fill="#EBEBF5" fill-opacity="0.6"/>
<path d="M47.9172 51.594V47.618H48.5644V51.594H47.9172ZM48.2446 46.8741C48.1255 46.8741 48.0226 46.8307 47.9358 46.7439C47.8491 46.6571 47.8057 46.5542 47.8057 46.4352C47.8057 46.3137 47.8491 46.2108 47.9358 46.1265C48.0226 46.0422 48.1255 46 48.2446 46C48.3661 46 48.469 46.0422 48.5533 46.1265C48.6376 46.2108 48.6797 46.3137 48.6797 46.4352C48.6797 46.5542 48.6376 46.6571 48.5533 46.7439C48.469 46.8307 48.3661 46.8741 48.2446 46.8741Z" fill="#EBEBF5" fill-opacity="0.6"/>
<path d="M46.2808 51.594V47.618H46.928V51.594H46.2808ZM46.6081 46.8741C46.4891 46.8741 46.3862 46.8307 46.2994 46.7439C46.2126 46.6571 46.1692 46.5542 46.1692 46.4352C46.1692 46.3137 46.2126 46.2108 46.2994 46.1265C46.3862 46.0422 46.4891 46 46.6081 46C46.7296 46 46.8325 46.0422 46.9168 46.1265C47.0011 46.2108 47.0433 46.3137 47.0433 46.4352C47.0433 46.5542 47.0011 46.6571 46.9168 46.7439C46.8325 46.8307 46.7296 46.8741 46.6081 46.8741Z" fill="#EBEBF5" fill-opacity="0.6"/>
<path d="M42.439 51.5941V46.0484H43.0861V51.5941H42.439ZM44.9459 51.5941L43.4023 49.6563L43.8672 49.2397L45.7456 51.5941H44.9459ZM42.9894 50.1807L42.9671 49.3587H43.1382L44.8603 47.618H45.6451L43.7594 49.4517L43.6255 49.5707L42.9894 50.1807Z" fill="#EBEBF5" fill-opacity="0.6"/>
<path d="M40.0625 51.6647C39.765 51.6647 39.5021 51.6189 39.274 51.5271C39.0484 51.4354 38.8673 51.3064 38.731 51.1403C38.5971 50.9742 38.5177 50.7795 38.4929 50.5563V50.5489H39.1513V50.5563C39.2033 50.7299 39.3062 50.8688 39.46 50.9729C39.6162 51.0746 39.8232 51.1254 40.0811 51.1254C40.2621 51.1254 40.4196 51.1006 40.5535 51.051C40.6874 50.9989 40.7928 50.927 40.8696 50.8353C40.9465 50.7435 40.9849 50.6382 40.9849 50.5191V50.5117C40.9849 50.3753 40.9329 50.2613 40.8287 50.1695C40.7246 50.0753 40.5523 49.9984 40.3117 49.9389L39.6906 49.7901C39.4426 49.7306 39.238 49.6537 39.0769 49.5595C38.9157 49.4628 38.7967 49.345 38.7198 49.2062C38.6429 49.0648 38.6045 48.8999 38.6045 48.7115V48.7078C38.6045 48.4846 38.6677 48.2862 38.7942 48.1127C38.9231 47.9366 39.0992 47.799 39.3224 47.6998C39.5455 47.5981 39.7972 47.5473 40.0774 47.5473C40.3601 47.5473 40.608 47.5932 40.8213 47.6849C41.037 47.7742 41.2094 47.9006 41.3383 48.0643C41.4697 48.228 41.5478 48.4189 41.5726 48.6371L41.5763 48.6483H40.944V48.6408C40.9044 48.4772 40.8101 48.3445 40.6614 48.2428C40.5126 48.1387 40.3179 48.0866 40.0774 48.0866C39.9187 48.0866 39.7786 48.1114 39.6571 48.161C39.5356 48.2106 39.4401 48.28 39.3707 48.3693C39.3013 48.4561 39.2666 48.559 39.2666 48.678V48.6855C39.2666 48.7722 39.2889 48.8516 39.3335 48.9235C39.3806 48.9929 39.4525 49.0537 39.5492 49.1058C39.6459 49.1578 39.7699 49.2025 39.9212 49.2397L40.5386 49.3884C40.9205 49.4802 41.2007 49.6116 41.3792 49.7827C41.5577 49.9513 41.647 50.1782 41.647 50.4633V50.4708C41.647 50.7064 41.5776 50.9146 41.4387 51.0957C41.2999 51.2742 41.1114 51.4143 40.8734 51.516C40.6353 51.6151 40.365 51.6647 40.0625 51.6647Z" fill="#EBEBF5" fill-opacity="0.6"/>
<path d="M34.5134 51.5941V47.618H35.1606V48.2094H35.2127C35.3143 48.0036 35.4606 47.8424 35.6516 47.7258C35.845 47.6068 36.0892 47.5473 36.3843 47.5473C36.8282 47.5473 37.1704 47.6762 37.4109 47.9341C37.6514 48.1895 37.7717 48.5503 37.7717 49.0165V51.5941H37.1245V49.1653C37.1245 48.8132 37.0489 48.5516 36.8976 48.3805C36.7463 48.2069 36.5133 48.1201 36.1983 48.1201C35.9876 48.1201 35.8041 48.166 35.6479 48.2577C35.4941 48.3495 35.3739 48.4796 35.2871 48.6483C35.2028 48.8144 35.1606 49.0128 35.1606 49.2434V51.5941H34.5134Z" fill="#EBEBF5" fill-opacity="0.6"/>
<path d="M31.6796 51.6647C31.4267 51.6647 31.1998 51.6164 30.9989 51.5197C30.8006 51.423 30.6431 51.2866 30.5266 51.1105C30.4125 50.932 30.3555 50.7225 30.3555 50.4819V50.4745C30.3555 50.2389 30.4113 50.0381 30.5228 49.872C30.6369 49.7033 30.8018 49.5707 31.0175 49.474C31.2333 49.3773 31.4949 49.3202 31.8023 49.3029L33.2641 49.2173V49.7306L31.8804 49.8162C31.5854 49.8335 31.3672 49.8968 31.2258 50.0059C31.087 50.115 31.0175 50.2675 31.0175 50.4633V50.4708C31.0175 50.6692 31.0919 50.8241 31.2407 50.9357C31.392 51.0473 31.5841 51.1031 31.8172 51.1031C32.0329 51.1031 32.2251 51.0597 32.3937 50.9729C32.5648 50.8861 32.6987 50.7671 32.7954 50.6158C32.8921 50.4646 32.9405 50.2947 32.9405 50.1063V48.8826C32.9405 48.6371 32.8661 48.4486 32.7173 48.3172C32.5685 48.1858 32.3479 48.1201 32.0553 48.1201C31.8123 48.1201 31.6139 48.166 31.4601 48.2577C31.3064 48.347 31.2047 48.4722 31.1551 48.6334L31.1514 48.6483H30.5117L30.5154 48.6222C30.5452 48.4115 30.6282 48.2255 30.7646 48.0643C30.901 47.9031 31.0808 47.7767 31.3039 47.6849C31.5271 47.5932 31.7837 47.5473 32.0739 47.5473C32.3937 47.5473 32.6665 47.6006 32.8921 47.7072C33.1203 47.8114 33.2926 47.9626 33.4091 48.161C33.5282 48.3569 33.5877 48.5912 33.5877 48.864V51.5941H32.9405V50.9952H32.8921C32.8103 51.1366 32.7086 51.2581 32.5871 51.3597C32.4656 51.4589 32.3293 51.5345 32.178 51.5866C32.0267 51.6387 31.8606 51.6647 31.6796 51.6647Z" fill="#EBEBF5" fill-opacity="0.6"/>
<path d="M28.9424 51.5941V46.0484H29.5896V51.5941H28.9424Z" fill="#EBEBF5" fill-opacity="0.6"/>
<path d="M26.5696 51.6647C26.2721 51.6647 26.0092 51.6189 25.7811 51.5271C25.5554 51.4354 25.3744 51.3064 25.238 51.1403C25.1041 50.9742 25.0248 50.7795 25 50.5563V50.5489H25.6583V50.5563C25.7104 50.7299 25.8133 50.8688 25.9671 50.9729C26.1233 51.0746 26.3303 51.1254 26.5882 51.1254C26.7692 51.1254 26.9267 51.1006 27.0606 51.051C27.1945 50.9989 27.2999 50.927 27.3767 50.8353C27.4536 50.7435 27.492 50.6382 27.492 50.5191V50.5117C27.492 50.3753 27.44 50.2613 27.3358 50.1695C27.2317 50.0753 27.0593 49.9984 26.8188 49.9389L26.1977 49.7901C25.9497 49.7306 25.7451 49.6537 25.584 49.5595C25.4228 49.4628 25.3038 49.345 25.2269 49.2062C25.15 49.0648 25.1116 48.8999 25.1116 48.7115V48.7078C25.1116 48.4846 25.1748 48.2862 25.3013 48.1127C25.4302 47.9366 25.6063 47.799 25.8294 47.6998C26.0526 47.5981 26.3043 47.5473 26.5845 47.5473C26.8672 47.5473 27.1151 47.5932 27.3284 47.6849C27.5441 47.7742 27.7164 47.9006 27.8454 48.0643C27.9768 48.228 28.0549 48.4189 28.0797 48.6371L28.0834 48.6483H27.4511V48.6408C27.4114 48.4772 27.3172 48.3445 27.1684 48.2428C27.0197 48.1387 26.825 48.0866 26.5845 48.0866C26.4258 48.0866 26.2857 48.1114 26.1642 48.161C26.0427 48.2106 25.9472 48.28 25.8778 48.3693C25.8084 48.4561 25.7736 48.559 25.7736 48.678V48.6855C25.7736 48.7722 25.796 48.8516 25.8406 48.9235C25.8877 48.9929 25.9596 49.0537 26.0563 49.1058C26.153 49.1578 26.277 49.2025 26.4283 49.2397L27.0457 49.3884C27.4276 49.4802 27.7078 49.6116 27.8863 49.7827C28.0648 49.9513 28.1541 50.1782 28.1541 50.4633V50.4708C28.1541 50.7064 28.0847 50.9146 27.9458 51.0957C27.8069 51.2742 27.6185 51.4143 27.3804 51.516C27.1424 51.6151 26.8721 51.6647 26.5696 51.6647Z" fill="#EBEBF5" fill-opacity="0.6"/>
<path d="M23.4375 31.2275C21.5075 29.2975 18.3775 29.2975 16.4475 31.2275C14.5175 33.1575 14.5175 36.2875 16.4475 38.2175C16.4575 38.2275 16.4675 38.2375 16.4875 38.2475L21.8675 43.6275H35.8375L23.4375 31.2275Z" fill="#F5F5F5"/>
<path d="M40.0476 28.3275C41.9776 30.2575 45.1076 30.2575 47.0376 28.3275C48.9676 26.3975 48.9676 23.2675 47.0376 21.3375L41.7676 16.0675H27.7876L40.0376 28.3175C40.0376 28.3175 40.0376 28.3275 40.0476 28.3375V28.3275Z" fill="#F5F5F5"/>
<path d="M56.4075 28.3275C58.3375 30.2575 61.4675 30.2575 63.3975 28.3275C65.3275 26.3975 65.3275 23.2675 63.3975 21.3375L58.1275 16.0675H44.1475L56.3975 28.3175C56.3975 28.3175 56.3975 28.3275 56.4075 28.3375V28.3275Z" fill="#F5F5F5"/>
<path d="M26.3274 17.4475C24.3974 15.5175 21.2674 15.5175 19.3374 17.4475C17.4074 19.3775 17.4074 22.5075 19.3374 24.4375L37.1574 42.2575C39.0874 44.1875 42.2174 44.1875 44.1474 42.2575C46.0774 40.3275 46.0774 37.1975 44.1474 35.2675L26.3274 17.4475Z" fill="#F5F5F5"/>
<path d="M85.6174 43.5875L71.3874 29.3475C69.4574 27.4175 66.3274 27.4175 64.3974 29.3475C62.4674 31.2775 62.4674 34.4075 64.3974 36.3375C64.4074 36.3475 64.4174 36.3575 64.4374 36.3675L66.8474 38.7775C67.2074 39.1375 67.2074 39.7175 66.8474 40.0775C66.4874 40.4375 65.9074 40.4375 65.5474 40.0775L54.8374 29.3575C52.9074 27.4275 49.7774 27.4275 47.8474 29.3575C45.9174 31.2875 45.9174 34.4175 47.8474 36.3475C47.8574 36.3575 47.8674 36.3675 47.8874 36.3775L55.1174 43.6075H66.7874H74.1674L85.6374 43.5875H85.6174Z" fill="#F5F5F5"/>
</svg>
